<?xml version="1.0" standalone="no"?><!DOCTYPE svg PUBLIC "-//W3C//DTD SVG 1.1//EN" "http://www.w3.org/Graphics/SVG/1.1/DTD/svg11.dtd"><svg class="icon" width="32px" height="32.00px" viewBox="0 0 1024 1024" version="1.1" xmlns="http://www.w3.org/2000/svg"><path fill="#ffffff" d="M810.666667 586.666667v170.666666h-85.333334v-170.666666h85.333334m85.333333-85.333334H640v341.333334h256v-341.333334z m-298.666667 170.666667a149.333333 149.333333 0 0 0-64-122.453333V501.333333h-170.666666v48.213334a149.333333 149.333333 0 0 0 0 244.906666v48.213334h170.666666v-48.213334a149.333333 149.333333 0 0 0 64-122.453333z m-149.333333 64a64 64 0 1 1 64-64 64 64 0 0 1-64 64z m-170.666667 21.333333h-64v-490.666666h597.333334v149.333333h85.333333v-234.666667H128v661.333334h149.333333z" /></svg>