<?xml version="1.0" standalone="no"?><!DOCTYPE svg PUBLIC "-//W3C//DTD SVG 1.1//EN" "http://www.w3.org/Graphics/SVG/1.1/DTD/svg11.dtd"><svg class="icon" width="32px" height="32.00px" viewBox="0 0 1024 1024" version="1.1" xmlns="http://www.w3.org/2000/svg"><path fill="#ffffff" d="M416 256a32 32 0 0 0-32-32H64a32 32 0 0 0 0 64h320a32 32 0 0 0 32-32zM768 512a32 32 0 0 1-32 32 96 96 0 0 0-77.76-94.4l-36.48-54.72a96 96 0 0 0-80-42.88h-59.52a96 96 0 0 0-80 42.88l-36.48 54.72A96 96 0 0 0 288 544a32 32 0 0 1-32-32v-160H192v160a96 96 0 0 0 96 96v96a96 96 0 0 0 96 96h256a96 96 0 0 0 96-96v-96a96 96 0 0 0 96-96v-160h-64z m-256 192a96 96 0 1 1 96-96 96 96 0 0 1-96 96zM960 224H640a32 32 0 0 0 0 64h320a32 32 0 0 0 0-64z"  /></svg>