<?xml version="1.0" standalone="no"?><!DOCTYPE svg PUBLIC "-//W3C//DTD SVG 1.1//EN" "http://www.w3.org/Graphics/SVG/1.1/DTD/svg11.dtd"><svg class="icon" width="32px" height="24.06px" viewBox="0 0 1362 1024" version="1.1" xmlns="http://www.w3.org/2000/svg"><path fill="#ffffff" d="M1116.194096 1021.112677a237.697307 237.697307 0 0 1-189.342218-94.379813l-33.790303-45.442133a58.259144 58.259144 0 1 1 93.21463-69.910972l33.790303 45.442132a124.091977 124.091977 0 0 0 186.429261 7.573689 116.518288 116.518288 0 0 0 29.129572-94.379814l-58.259144-446.265042A233.036576 233.036576 0 0 0 922.773738 118.678537l-206.819961 22.721066a349.554864 349.554864 0 0 1-77.484661 0L432.231746 118.678537A233.036576 233.036576 0 0 0 177.056695 322.585541l-58.259144 446.847634a116.518288 116.518288 0 0 0 29.129572 94.379813 124.091977 124.091977 0 0 0 186.429261-7.573689l67.580607-90.301673a237.697307 237.697307 0 0 1 189.342218-94.379813h143.900086a58.259144 58.259144 0 0 1 0 116.518288h-143.317495a120.596428 120.596428 0 0 0-96.127587 48.355089l-67.580607 89.719082A236.532124 236.532124 0 0 1 2.279264 754.868389l58.259144-446.265043A349.554864 349.554864 0 0 1 445.631349 2.160249l206.819961 22.721066a228.958436 228.958436 0 0 0 51.268047 0L909.956726 2.160249a349.554864 349.554864 0 0 1 385.675533 306.443097l58.259144 446.265043a236.532124 236.532124 0 0 1-233.036575 266.244288zM753.239629 390.166148a58.259144 58.259144 0 1 0 82.145393 0 58.259144 58.259144 0 0 0-82.145393 0zM876.166423 280.638957a58.259144 58.259144 0 1 0 82.145393 0 58.259144 58.259144 0 0 0-82.145393 0z m109.527191 109.527191a58.259144 58.259144 0 1 0 82.145393 0 58.259144 58.259144 0 0 0-81.562802 0zM876.166423 513.675533a58.259144 58.259144 0 1 0 82.145393 0 58.259144 58.259144 0 0 0-82.145393 0z"  /></svg>