<?xml version="1.0" standalone="no"?><!DOCTYPE svg PUBLIC "-//W3C//DTD SVG 1.1//EN" "http://www.w3.org/Graphics/SVG/1.1/DTD/svg11.dtd"><svg class="icon" width="32px" height="32.00px" viewBox="0 0 1024 1024" version="1.1" xmlns="http://www.w3.org/2000/svg"><path fill="#ffffff" d="M794.03008 407.51104H382.976l399.58528-108.76928a61.44 61.44 0 0 0 43.17184-75.28448l-6.38976-23.63392a61.44 61.44 0 0 0-75.44832-43.27424l-550.54336 149.83168a61.44 61.44 0 0 0-43.15136 75.38688l6.41024 23.63392a61.37856 61.37856 0 0 0 28.7744 37.21216c0.94208 0.53248 2.02752 0.73728 2.99008 1.2288a81.53088 81.53088 0 0 0-13.86496 45.58848v298.25024a81.92 81.92 0 0 0 81.92 81.92h537.6a81.92 81.92 0 0 0 81.92-81.92v-298.25024a81.92 81.92 0 0 0-81.92-81.92z m-147.74272 258.048l-176.45568 100.16768a19.08736 19.08736 0 0 1-19.1488-0.12288 19.1488 19.1488 0 0 1-9.54368-16.5888v-200.33536a19.2512 19.2512 0 0 1 28.69248-16.71168l176.45568 100.16768a19.21024 19.21024 0 0 1 0 33.42336z" /></svg>