<?xml version="1.0" standalone="no"?><!DOCTYPE svg PUBLIC "-//W3C//DTD SVG 1.1//EN" "http://www.w3.org/Graphics/SVG/1.1/DTD/svg11.dtd"><svg class="icon" width="32px" height="32.00px" viewBox="0 0 1024 1024" version="1.1" xmlns="http://www.w3.org/2000/svg"><path fill="#ffffff" d="M512 1024a512 512 0 1 1 512-512 512 512 0 0 1-512 512z m294.4-396.8V332.8a76.8 76.8 0 0 0-76.8-76.8H294.4a76.8 76.8 0 0 0-76.8 76.8v358.4a76.8 76.8 0 0 0 76.8 76.8h435.2a76.8 76.8 0 0 0 76.8-76.8v-64z m-76.8 115.2H524.8v-115.968a115.2 115.2 0 0 0 0-228.864V281.6h204.8a51.2 51.2 0 0 1 51.2 51.2v64h-64a25.6768 25.6768 0 0 0-25.6 25.6v179.2a25.6768 25.6768 0 0 0 25.6 25.6h64v64a51.2 51.2 0 0 1-51.2 51.2z m-12.8-320h64v179.2h-64V422.4zM243.2 691.2v-64h64a25.6768 25.6768 0 0 0 25.6-25.6V422.4a25.6768 25.6768 0 0 0-25.6-25.6h-64v-64a51.2 51.2 0 0 1 51.2-51.2h204.8v115.968a115.2 115.2 0 0 0 0 228.864V742.4H294.4a51.2 51.2 0 0 1-51.2-51.2z m179.2-179.2a89.3824 89.3824 0 0 1 76.8-88.32v176.64a89.3824 89.3824 0 0 1-76.8-88.32z m-115.2 89.6h-64V422.4h64v179.2z m294.4-89.6a89.3824 89.3824 0 0 1-76.8 88.32V423.68a89.3824 89.3824 0 0 1 76.8 88.32z"  /></svg>