<svg xmlns="http://www.w3.org/2000/svg" id="Layer_1" width="218" height="85"><path fill="#FFF" d="M0 0h218v85H0z"/><path fill="#32276B" d="M31 67.3c-.7-.5-1-1.5-.8-2.2.2-.7.7-1.1 1.3-.7l.5.8.1-.2h.1l-.3 1.2-.1-.1c0-.7 0-1.1-.3-1.4-.4-.3-.7 0-.8.8-.1.7 0 1.3.3 1.6.4.3.6.2.8-.3h.2c-.2.7-.7.8-1 .5M33.3 68.7c-.8-.3-1-1.3-1-1.9.2-.6.8-1.2 1.5-.9 1 .4 1 1.4 1 2-.2.7-.7 1.2-1.5.8m.5-2.5c-.3-.2-.7 0-.8.9-.2 1 0 1.3.4 1.4.4.2.7-.2.8-.8.2-.9 0-1.4-.4-1.5zM37.7 69.1c-.1 0-.2 0-.3.2l-.2 1-.2-.1v-.4c-.2.2-.5.3-.9.2-.7-.3-1-1-.9-1.8.2-.8.8-1.3 1.6-1 .3 0 .5.3.6.5l.2-.3h.1l-.3 1.2h-.1c0-.6 0-1-.5-1.2-.3 0-.8 0-1 1-.2.8 0 1.2.5 1.4.3 0 .4 0 .5-.2v-.4-.3l-.3-.1v-.2l1.3.4v.1h-.1M41 68.4c-.2 0-.3 0-.3.2l-.3 2.4H40l-1.2-2.4-.3 1.6c0 .2 0 .3.2.3l.3.1v.2l-1.2-.3v-.2l.3.1.2-.2.3-2c0-.2 0-.2-.2-.3h-.2v-.2l.9.2 1 2.1.2-1.5-.1-.2H40V68l1.2.2v.2h-.3M42.5 71.3c-.9-.1-1.2-1-1.2-1.6 0-.7.6-1.5 1.4-1.4 1 0 1.3 1 1.3 1.6-.1.7-.6 1.4-1.5 1.4m.2-2.8c-.3 0-.7.3-.8 1.3 0 1 .3 1.2.6 1.2.5 0 .8-.4.8-1.1 0-1-.2-1.4-.6-1.4zM45.7 71.3c-.5 0-.7-.1-.8-.4l-.2.4V70c.2.6.4 1 1 1 .2 0 .4-.1.4-.3 0-.9-1.5-.3-1.5-1.6 0-.2.2-.8.9-.8.3 0 .5.1.7.3l.1-.3h.1v1.1h-.2c0-.6-.2-.9-.7-.9-.3 0-.5.3-.5.5 0 .7 1.6.2 1.6 1.4 0 .4-.4.9-1 .9M48.6 71c-.8.1-1.3-.5-1.4-1.2 0-.8.5-1.7 1.2-1.8.3 0 .5 0 .8.2v-.3h.2V69h-.1c-.1-.6-.4-1-.8-.9-.4.1-.7.7-.6 1.5 0 .7.3 1.1.7 1 .5 0 .8-.3.8-1h.2c0 .7-.3 1.2-1 1.3M51.1 67.7l-.1.3v.8h.1c.4-.1.5-.1.5-.8h.2v1.5c-.2-.6-.2-.6-.7-.5v1c0 .2.1.2.2.2l.5-.2c.5-.1.5-.3.6-1l.1-.1.1 1c-.9.4-1.6.6-2.5.8v-.2h.3l.1-.4-.1-2c0-.2-.1-.2-.2-.1h-.3v-.2l2.4-.6v1c-.2-.7-.4-.7-.7-.6l-.5.1M53.2 69.7v-.1l.3-.1s.1-.2 0-.4l-.1-1.9c0-.2-.2-.2-.3-.1H53l1.6-.8c.4-.2.8 0 .9.3 0 .3-.2.7-.5.9.3 0 .4.2.5.8 0 .2.1.2.2.1v-.7l.2-.1v.6c.1.2 0 .4-.4.6-.3.1-.5 0-.6-.3 0-.6-.2-.7-.5-.6H54l.2 1 .1.2.4-.1v.1l-1.5.6m1-3.1l-.2.1-.1.2.1.9.3-.1c.4-.2.5-.6.5-.8 0-.5-.4-.4-.6-.3zM57.8 64.1l.3 1h-.2c-.2-.6-.4-.5-.6-.3l-.4.3v1.1l.2-.1c.3-.2.3-.3.2-1h.1l.4 1.4-.2.1c-.1-.6-.1-.6-.5-.3l.1 1c0 .2 0 .1.2 0l.5-.3c.2-.2.3-.5.2-1.2l.1-.1.3 1a16 16 0 0 1-2.1 1.6V68l.2-.1c.1-.1.1-.2 0-.4l-.3-1.8c0-.2 0-.3-.2-.2l-.2.2v-.2l1.9-1.5M17 56.6c-.2-.2-.3-.6-.2-.8.3-.5.3-.8 0-1.1v-.2l-.5.8v.2l.2.3v.1l-1-1.1v-.2l.2.2c.1 0 .2.1.2 0l.9-1.6v-.4l-.2-.2v-.1l1.1 1.3c.3.4.4 1 .2 1.3 0 .2-.3.2-.6 0 .2.4.1.7-.1 1.2v.2c0 .1 0 .1.1 0l.2-.5.2.2-.2.5c-.1.2-.3.2-.5 0m.4-3v-.2h-.2l-.4.8.2.3c.3.3.5.2.6 0 .2-.4 0-.7-.2-.9zM17.4 57.1l.1-.1.2.1h.3l.9-1.8V55l-.3-.1.1-.2 1.8 1.5-.5 1V57c.2-.6.1-.9-.1-1.1l-.4-.3h-.2l-.4.9c.4.3.5.3.8-.2h.1l-.7 1.4-.1-.1c.2-.6.2-.6-.1-1l-.5.9v.2l.4.4c.3.2.5.1.9-.4h.1l-.5 1-1.9-1.6M21.7 60c-.2 0-.4-.3-.3-.7.3-.5.3-.7 0-1h-.2l-.4.8v.2l.3.2v.2l-1.4-.8.1-.1.2.1.3-.1.8-1.8v-.3l-.3-.1.1-.2 1.5.9c.4.2.6.6.4 1-.1.3-.4.4-.7.3.1.3.1.5-.1 1v.3h.2l.2-.6.2.1-.2.6c-.1.2-.3.3-.7 0m.3-2.8h-.2c0-.1 0 0-.1 0l-.4.8.2.2c.4.2.7 0 .8-.2.2-.4 0-.6-.3-.8zM25.6 58.7c-.1 0-.2 0-.3.2l-1.6 2h-.2v-2.7l-.1-.3h-.2v-.2l1.4.5v.1h-.3l-.2.1v1.8l1-1.4-.1-.3h-.2v-.2l1 .3v.2h-.2M27.2 62v-.3h.5l.5-1.7-1.5 1.8h-.2v-2.3l-.7 1.7c0 .1 0 .2.2.2h.2v.3l-1.1-.3v-.2h.2c.1.1.2 0 .3-.1l.7-2-.1-.2h-.3v-.2l1.1.2v2l1.4-1.6 1 .1v.2H29s-.2 0-.2.2l-.6 1.9.1.3h.2v.2l-1.4-.3M61.5 62c-.8.2-1.4-.5-1.6-1.2-.2-.7.1-1.6.9-1.7l.7.1V59h.2L62 60h-.2c-.2-.6-.5-.9-1-.8-.4 0-.5.6-.3 1.4.2.7.6 1.1 1 1 .4 0 .6-.4.5-1h.2c.2.7-.1 1.1-.7 1.3M63.7 61.3v-.2h.2s.2-.1 0-.3l-.2-.4-.7.2v.5c0 .2.1.2.2.2h.2l-1 .4v-.2h.2c.1 0 .2-.1.2-.3v-2.6l.3-.1 1.5 2c0 .3.1.3.2.2h.3v.1l-1.4.5m-.7-1.9v1l.6-.2-.6-.8zM66.4 57.4c-.2 0-.2.1-.2.3v2.7l-.3.1-1.5-2c-.1-.2-.1-.2-.2-.1H64v-.1l1.2-.6v.2h-.1c-.1 0-.2.2 0 .3l.9 1.4v-1.8c0-.2-.1-.2-.2-.1h-.2v-.1l.8-.4v.1M68.3 59.3c-.3.2-.5.2-.7 0v.4h-.2l-.3-1 .1-.2c.3.5.6.9 1 .6.2-.1.4-.4.3-.6-.2-.8-1.3.5-1.7-.7 0-.3 0-1 .5-1.2.3-.2.5-.2.7 0V56l.4 1.1h-.1c-.2-.5-.5-.7-1-.4-.2.1-.2.4-.2.6.2.7 1.4-.5 1.7.6.2.5 0 1-.5 1.3M70.2 58l-.1-.3.2-.1v-.3l-.2-.4-.6.5v.5c0 .2.1.2.3.1l.1-.1v.2l-.7.6v-.2c.2-.2.2-.2.2-.5l-.2-2.7.2-.2 1.4 1.8h.3l.1-.1.1.2-1.1 1m-.8-1.9l.1 1 .4-.3-.5-.7zM72 56c-.2.4-.3.4-.5.4v.4l-.5-1 .1-.2c.3.5.6.8.9.3.1-.2.2-.5.1-.7-.3-.8-1 .9-1.4-.3-.1-.2-.2-.9.2-1.4.2-.2.4-.3.5-.2v-.4l.5 1-.1.1c-.3-.5-.5-.7-.8-.3-.2.3-.2.6-.1.7.2.7 1-.8 1.4.2.2.4.1 1-.2 1.5"/><path fill="#32276B" d="M74 53.2a8.1 8.1 0 0 1-2-3.7c0-.7-.5-1.3-1.6-1.3-1.4 0-2.5.8-3.2 1.5-.5.6-.8 1.2-.7 1.7l.1.4 2 2.3c-3 2.4-6.7 3.5-10 4 5.4-5.4 9-12.7 9-23.2V15.4C62 14 52.8 12.5 44.4 12.5c-8.5 0-17.6 1.5-23.3 2.9v19.5c0 10.4 3.6 17.7 9 23-3.4-.4-7-1.4-10-3.8l2-2.3.1-.4c0-.5-.2-1.1-.7-1.7a4.4 4.4 0 0 0-3.2-1.5c-1.1 0-1.6.6-1.7 1.3-.5 2-1.4 3.2-1.9 3.7-1 1.2-.4 2.3.1 3.1 1.6 2.2 5.7 6 14.6 7.3l-.8 2c-.3.8 0 1.5 1 2.3 2.5 2.2 7.7 4.6 14.7 4.6 7.1 0 12.3-2.4 14.8-4.6 1-.8 1.3-1.5 1-2.2l-.9-2.1c9-1.3 13.2-5 14.8-7.4.5-.8 1-1.8 0-3M44.3 67.1c-3.7 0-6.7-1-8.6-1.8.4-.7.7-1.5.9-2.2 2.4 1.5 5 2.8 7.8 4a56 56 0 0 0 7.8-4c.2.7.5 1.5 1 2.2-2 .8-5 1.8-8.9 1.8z"/><path fill="#FFF" d="M31.3 60.4c-.6 0-.8.2-.8.5 0 1.5 3 3.4 4.7 4.2l1-2.3-3-2.1a8 8 0 0 0-1.9-.3M19 51l-.8 1.2 1.6 1.6 1.4-1.7A3 3 0 0 1 19 51"/><path fill="#FFF" d="M19 50c.6 1 1.5 1.8 2.4 1.6.3 0 .3-.2.3-.3 0-.4-.1-.8-.6-1.3a3.8 3.8 0 0 0-2.7-1.3c-1 0-1.3.5-1.3 1 0 .4.2 1.2.9 2.1l1-1.7"/><path fill="#FFF" d="M16.7 50.5a8.3 8.3 0 0 1-1.5 3c-.7.7-.7 1.5 0 2.5 1.6 2.2 5.5 5.9 14.4 7L30 61c0-.7.5-1 1.2-1 .3 0 .7 0 1.2.2l-1.7-1.5c-8.5-1.1-12.8-5.1-14-8M53.6 65c1.8-.7 4.5-2.6 4.5-4 0-.4-.1-.6-.7-.6l-1.8.3-3 2.1c.2.8.6 1.5 1 2.2M67.5 52.1l1.4 1.7 1.6-1.6-.8-1.3a3 3 0 0 1-2.2 1.2"/><path fill="#FFF" d="M67 51.4s0 .2.2.3c.9.2 1.9-.6 2.4-1.6l1.1 1.7c.7-1 .9-1.7.9-2 0-.6-.3-1.1-1.3-1.1s-2 .5-2.7 1.3c-.5.5-.7 1-.7 1.4"/><path fill="#FFF" d="M73.6 53.6a9 9 0 0 1-1.7-3c-1.1 2.9-5.4 6.9-13.8 8L56.3 60l1.2-.2c.7 0 1.2.3 1.2 1 0 .8.2 1.6.4 2.3 8.9-1.3 12.9-5 14.3-7 .7-1.1.8-1.9.2-2.6"/><path fill="#FFF" d="M58.4 61.9c-1.4 2.4-7.4 5.7-14 5.7-6.7 0-12.7-3.3-14.1-5.7-.3 1.6-.7 2.9-1.2 4-.2.4-.3.8.8 1.8 2.5 2.1 7.5 4.3 14.4 4.3 7 0 12-2.2 14.5-4.3 1-1 1-1.4.8-1.8-.5-1.1-1-2.4-1.2-4"/><path fill="#0094D8" d="M44.4 65.6c-12-5-22.4-13.7-22.4-31.1V16.3a105 105 0 0 1 22.4-3c7.7 0 17.7 1.8 22.3 3v18.2c0 17.4-10.3 26-22.3 31"/><path fill="#32276B" d="M31 67.3c-.7-.5-1-1.5-.8-2.2.2-.7.7-1.1 1.3-.7l.5.8.1-.2h.1l-.3 1.2-.1-.1c0-.7 0-1.1-.3-1.4-.4-.3-.7 0-.8.8-.1.7 0 1.3.3 1.6.4.3.6.2.8-.3h.2c-.2.7-.7.8-1 .5M33.3 68.7c-.8-.3-1-1.3-1-1.9.2-.6.8-1.2 1.5-.9 1 .4 1 1.4 1 2-.2.7-.7 1.2-1.5.8m.5-2.5c-.3-.2-.7 0-.8.9-.2 1 0 1.3.4 1.4.4.2.7-.2.8-.8.2-.9 0-1.4-.4-1.5zM37.7 69.1c-.1 0-.2 0-.3.2l-.2 1-.2-.1v-.4c-.2.2-.5.3-.9.2-.7-.3-1-1-.9-1.8.2-.8.8-1.3 1.6-1 .3 0 .5.3.6.5l.2-.3h.1l-.3 1.2h-.1c0-.6 0-1-.5-1.2-.3 0-.8 0-1 1-.2.8 0 1.2.5 1.4.3 0 .4 0 .5-.2v-.4-.3l-.3-.1v-.2l1.3.4v.1h-.1M41 68.4c-.2 0-.3 0-.3.2l-.3 2.4H40l-1.2-2.4-.3 1.6c0 .2 0 .3.2.3l.3.1v.2l-1.2-.3v-.2l.3.1.2-.2.3-2c0-.2 0-.2-.2-.3h-.2v-.2l.9.2 1 2.1.2-1.5-.1-.2H40V68l1.2.2v.2h-.3M42.5 71.3c-.9-.1-1.2-1-1.2-1.6 0-.7.6-1.5 1.4-1.4 1 0 1.3 1 1.3 1.6-.1.7-.6 1.4-1.5 1.4m.2-2.8c-.3 0-.7.3-.8 1.3 0 1 .3 1.2.6 1.2.5 0 .8-.4.8-1.1 0-1-.2-1.4-.6-1.4zM45.7 71.3c-.5 0-.7-.1-.8-.4l-.2.4V70c.2.6.4 1 1 1 .2 0 .4-.1.4-.3 0-.9-1.5-.3-1.5-1.6 0-.2.2-.8.9-.8.3 0 .5.1.7.3l.1-.3h.1v1.1h-.2c0-.6-.2-.9-.7-.9-.3 0-.5.3-.5.5 0 .7 1.6.2 1.6 1.4 0 .4-.4.9-1 .9M48.6 71c-.8.1-1.3-.5-1.4-1.2 0-.8.5-1.7 1.2-1.8.3 0 .5 0 .8.2v-.3h.2V69h-.1c-.1-.6-.4-1-.8-.9-.4.1-.7.7-.6 1.5 0 .7.3 1.1.7 1 .5 0 .8-.3.8-1h.2c0 .7-.3 1.2-1 1.3M51.1 67.7l-.1.3v.8h.1c.4-.1.5-.1.5-.8h.2v1.5c-.2-.6-.2-.6-.7-.5v1c0 .2.1.2.2.2l.5-.2c.5-.1.5-.3.6-1l.1-.1.1 1c-.9.4-1.6.6-2.5.8v-.2h.3l.1-.4-.1-2c0-.2-.1-.2-.2-.1h-.3v-.2l2.4-.6v1c-.2-.7-.4-.7-.7-.6l-.5.1M53.2 69.7v-.1l.3-.1s.1-.2 0-.4l-.1-1.9c0-.2-.2-.2-.3-.1H53l1.6-.8c.4-.2.8 0 .9.3 0 .3-.2.7-.5.9.3 0 .4.2.5.8 0 .2.1.2.2.1v-.7l.2-.1v.6c.1.2 0 .4-.4.6-.3.1-.5 0-.6-.3 0-.6-.2-.7-.5-.6H54l.2 1 .1.2.4-.1v.1l-1.5.6m1-3.1l-.2.1-.1.2.1.9.3-.1c.4-.2.5-.6.5-.8 0-.5-.4-.4-.6-.3zM57.8 64.1l.3 1h-.2c-.2-.6-.4-.5-.6-.3l-.4.3v1.1l.2-.1c.3-.2.3-.3.2-1h.1l.4 1.4-.2.1c-.1-.6-.1-.6-.5-.3l.1 1c0 .2 0 .1.2 0l.5-.3c.2-.2.3-.5.2-1.2l.1-.1.3 1a16 16 0 0 1-2.1 1.6V68l.2-.1c.1-.1.1-.2 0-.4l-.3-1.8c0-.2 0-.3-.2-.2l-.2.2v-.2l1.9-1.5M17 56.6c-.2-.2-.3-.6-.2-.8.3-.5.3-.8 0-1.1v-.2l-.5.8v.2l.2.3v.1l-1-1.1v-.2l.2.2c.1 0 .2.1.2 0l.9-1.6v-.4l-.2-.2v-.1l1.1 1.3c.3.4.4 1 .2 1.3 0 .2-.3.2-.6 0 .2.4.1.7-.1 1.2v.2c0 .1 0 .1.1 0l.2-.5.2.2-.2.5c-.1.2-.3.2-.5 0m.4-3v-.2h-.2l-.4.8.2.3c.3.3.5.2.6 0 .2-.4 0-.7-.2-.9zM17.4 57.1l.1-.1.2.1h.3l.9-1.8V55l-.3-.1.1-.2 1.8 1.5-.5 1V57c.2-.6.1-.9-.1-1.1l-.4-.3h-.2l-.4.9c.4.3.5.3.8-.2h.1l-.7 1.4-.1-.1c.2-.6.2-.6-.1-1l-.5.9v.2l.4.4c.3.2.5.1.9-.4h.1l-.5 1-1.9-1.6M21.7 60c-.2 0-.4-.3-.3-.7.3-.5.3-.7 0-1h-.2l-.4.8v.2l.3.2v.2l-1.4-.8.1-.1.2.1.3-.1.8-1.8v-.3l-.3-.1.1-.2 1.5.9c.4.2.6.6.4 1-.1.3-.4.4-.7.3.1.3.1.5-.1 1v.3h.2l.2-.6.2.1-.2.6c-.1.2-.3.3-.7 0m.3-2.8h-.2c0-.1 0 0-.1 0l-.4.8.2.2c.4.2.7 0 .8-.2.2-.4 0-.6-.3-.8zM25.6 58.7c-.1 0-.2 0-.3.2l-1.6 2h-.2v-2.7l-.1-.3h-.2v-.2l1.4.5v.1h-.3l-.2.1v1.8l1-1.4-.1-.3h-.2v-.2l1 .3v.2h-.2M27.2 62v-.3h.5l.5-1.7-1.5 1.8h-.2v-2.3l-.7 1.7c0 .1 0 .2.2.2h.2v.3l-1.1-.3v-.2h.2c.1.1.2 0 .3-.1l.7-2-.1-.2h-.3v-.2l1.1.2v2l1.4-1.6 1 .1v.2H29s-.2 0-.2.2l-.6 1.9.1.3h.2v.2l-1.4-.3M61.5 62c-.8.2-1.4-.5-1.6-1.2-.2-.7.1-1.6.9-1.7l.7.1V59h.2L62 60h-.2c-.2-.6-.5-.9-1-.8-.4 0-.5.6-.3 1.4.2.7.6 1.1 1 1 .4 0 .6-.4.5-1h.2c.2.7-.1 1.1-.7 1.3M63.7 61.3v-.2h.2s.2-.1 0-.3l-.2-.4-.7.2v.5c0 .2.1.2.2.2h.2l-1 .4v-.2h.2c.1 0 .2-.1.2-.3v-2.6l.3-.1 1.5 2c0 .3.1.3.2.2h.3v.1l-1.4.5m-.7-1.9v1l.6-.2-.6-.8zM66.4 57.4c-.2 0-.2.1-.2.3v2.7l-.3.1-1.5-2c-.1-.2-.1-.2-.2-.1H64v-.1l1.2-.6v.2h-.1c-.1 0-.2.2 0 .3l.9 1.4v-1.8c0-.2-.1-.2-.2-.1h-.2v-.1l.8-.4v.1M68.3 59.3c-.3.2-.5.2-.7 0v.4h-.2l-.3-1 .1-.2c.3.5.6.9 1 .6.2-.1.4-.4.3-.6-.2-.8-1.3.5-1.7-.7 0-.3 0-1 .5-1.2.3-.2.5-.2.7 0V56l.4 1.1h-.1c-.2-.5-.5-.7-1-.4-.2.1-.2.4-.2.6.2.7 1.4-.5 1.7.6.2.5 0 1-.5 1.3M70.2 58l-.1-.3.2-.1v-.3l-.2-.4-.6.5v.5c0 .2.1.2.3.1l.1-.1v.2l-.7.6v-.2c.2-.2.2-.2.2-.5l-.2-2.7.2-.2 1.4 1.8h.3l.1-.1.1.2-1.1 1m-.8-1.9l.1 1 .4-.3-.5-.7zM72 56c-.2.4-.3.4-.5.4v.4l-.5-1 .1-.2c.3.5.6.8.9.3.1-.2.2-.5.1-.7-.3-.8-1 .9-1.4-.3-.1-.2-.2-.9.2-1.4.2-.2.4-.3.5-.2v-.4l.5 1-.1.1c-.3-.5-.5-.7-.8-.3-.2.3-.2.6-.1.7.2.7 1-.8 1.4.2.2.4.1 1-.2 1.5M28.4 23.9l.3-.5 30.7 19.4 1 .8.2-.2.4-.4 1 .5c.7.5 1.3 1.4 1.2 2-.6.4-1.8.2-2.5-.2l-.9-.7.3-.6-27.3-17.3c-.8 0-1.6.1-2.5-.4l-2-1.3.9-.6-.8-.5"/><path fill="#FFF" d="M28.5 23.7l.9.6-1 .6 2 1.2c.9.6 1.7.5 2.5.4l26.2 16.6 3 1.8c-.7-.1-1.4-.5-2-.9l-.2.5.9.7c.7.4 1.9.6 2.5.2 0-.6-.5-1.6-1.2-2l-1-.5-.5.5L33.2 26c-.2-.7-.5-1.5-1.3-2l-2-1.3-.2 1-.9-.5-.3.4"/><path fill="#32276B" d="M30.2 24.2v-.8h.1l.1 1-.2-.2M31 24.7l-.1-1 .1.1.2 1H31M32.5 25.7l-.1-.8c-.1-.1 0 0 0 0l.4 1-.3-.2M31.8 25.2a7 7 0 0 0-.2-1h.1c.2.3.3 1 .3 1.2l-.2-.2M30 24.6l-.9.3v.1l1-.3-.2-.1M30.7 25c-.3.2-.7.3-1 .3l.1.1 1.2-.2-.3-.1M32.3 26l-.8.2c-.2 0-.1 0 0 0h1l-.2-.1M31.5 25.6a8 8 0 0 1-1 .2c-.1 0 0 .1 0 .1l1.3-.2-.3-.1M26.6 26.6l.3-.5 30.7 19.5 1.1.7.2-.2.3-.4 1 .5c.7.5 1.4 1.5 1.3 2.1-.6.4-1.8.2-2.5-.3l-1-.7.4-.6L31 29.4c-.8 0-1.6.1-2.4-.4l-2-1.3.8-.6-.8-.5"/><path fill="#FFF" d="M26.7 26.4l.9.6-.9.6 2 1.3c.8.5 1.7.4 2.5.4l26.2 16.5c.8.6 2.1 1.3 3 1.8-.8-.1-1.4-.5-2-.8l-.2.4.8.7c.7.4 1.9.6 2.5.2.1-.6-.5-1.5-1.2-2a8 8 0 0 0-1-.5l-.5.5-27.3-17.3c-.3-.7-.5-1.5-1.3-2l-2-1.3-.3 1-.8-.5-.4.4"/><path fill="#32276B" d="M28.4 27V26h.2v1l-.2-.2M29.2 27.4v-1 .1c.2.3.2 1 .2 1.1l-.2-.2M30.8 28.4l-.2-.7c0-.2 0-.1.1 0l.3.9-.2-.2M30 28l-.1-1c0-.1 0 0 0 0l.4 1.1-.3-.1M28.2 27.3a9 9 0 0 1-.8.3c-.1 0 0 .1 0 .1l1-.3-.2-.1M29 27.8l-1 .3c-.1 0 0 0 0 0l1.2-.2-.2-.1M30.6 28.8l-.9.1c-.2 0 0 0 0 .1h1l-.1-.2M29.8 28.3l-1 .2c-.2 0 0 .1 0 .1l1.2-.2-.2-.1M24.9 29.3l.3-.4 30.6 19.4 1.1.7.2-.2.4-.3 1 .5c.7.4 1.3 1.4 1.2 2-.6.4-1.8.2-2.5-.3l-.9-.6.3-.6L29.3 32c-.8 0-1.7.2-2.5-.4a83 83 0 0 1-2-1.3l.9-.5-.8-.6"/><path fill="#FFF" d="M25 29.2l.8.5-.9.6 2 1.3c.9.5 1.7.4 2.5.4l26.2 16.6 3 1.7c-.7 0-1.4-.4-2-.8l-.2.4.9.7c.7.5 1.8.6 2.4.3.2-.7-.5-1.6-1.2-2l-1-.6-.4.5-27.4-17.3c-.3-.7-.5-1.4-1.3-2l-2-1.2-.2 1-.9-.6-.3.5"/><path fill="#32276B" d="M26.7 29.7v-.9h.1l.1 1-.2-.1M27.4 30.2v-1c.2.3.3 1 .3 1.1l-.3-.1M29 31.2l-.2-.8c0-.2.1 0 .1 0 .2.2.3.6.4 1l-.3-.2M28.2 30.7l-.1-1c0-.1.1 0 .1 0l.3 1.1-.3-.1M26.4 30l-.8.4 1-.2-.2-.2M27.2 30.5l-1 .3h.1l1.2-.1-.3-.2M28.8 31.5l-.8.1c-.3 0-.1.1 0 .1h1l-.2-.2M28 31l-1 .3c-.1 0 0 0 0 0l1.3-.1-.3-.2M23 32l.4-.4L54 51l1.2.7.1-.2.4-.3 1 .5c.7.4 1.3 1.4 1.2 2-.6.4-1.8.2-2.5-.3l-.9-.6.3-.6-27.3-17.3c-.8 0-1.7 0-2.5-.4L23 33l.9-.5-.8-.5"/><path fill="#FFF" d="M23.2 31.9l.8.5-.8.6 2 1.3c.8.5 1.6.4 2.4.4l26.2 16.6 3 1.7c-.7 0-1.4-.4-2-.8l-.2.4.9.7c.7.5 1.8.6 2.4.3.2-.7-.4-1.6-1.2-2l-1-.6-.4.6-27.4-17.4c-.3-.7-.5-1.4-1.3-2l-2-1.2-.2 1-.9-.6-.3.5"/><path fill="#32276B" d="M24.9 32.4v-.9h.1l.1 1-.2-.1M25.6 32.9v-1c.2.3.3 1 .3 1.1l-.3-.1M27.2 33.9l-.1-.8c-.1-.2 0 0 0 0 .2.2.3.7.4 1l-.3-.2M26.4 33.4l-.1-1c0-.1.1 0 .1 0 .2.3.3 1 .3 1.2l-.3-.2M24.6 32.7l-.8.4 1-.2-.2-.2M25.4 33.2l-1 .3.1.1 1.2-.2-.3-.2M27 34.2l-.8.2c-.3 0-.1 0 0 0h1l-.2-.2M26.2 33.7l-1 .3c-.1 0 0 0 0 0l1.3-.1-.3-.2M60.3 23.9l-.3-.5-30.6 19.4-1.2.8-.1-.2-.3-.4-1 .5c-.8.5-1.4 1.4-1.3 2 .6.4 1.8.2 2.5-.2l.9-.7-.3-.6 27.3-17.3c.8 0 1.7.1 2.5-.4l2-1.3-.9-.6.8-.5"/><path fill="#FFF" d="M59.9 23.3l-.9.5a14 14 0 0 1-.2-1l-2 1.3c-.8.5-1 1.3-1.3 2L28 43.4a7 7 0 0 0-.4-.5l-1 .5c-.7.4-1.4 1.4-1.2 2 .6.4 1.7.2 2.4-.2l1-.7-.3-.4c-.6.3-1.3.7-2 .8a38 38 0 0 0 3-1.8l26.2-16.6c.8 0 1.6.2 2.5-.4l2-1.2-1-.6 1-.6-.4-.4"/><path fill="#32276B" d="M58.5 24.2v-.8h-.1l-.1 1 .2-.2M57.8 24.7v-1 .1c-.2.3-.3 1-.3 1h.3M56.2 25.7l.1-.8c.1-.1 0 0 0 0l-.4 1 .3-.2M57 25.2l.1-1H57a6 6 0 0 0-.3 1.2l.3-.2M58.8 24.6l.8.3v.1l-1-.3.2-.1M58 25c.3.2.7.3 1 .3l-.1.1-1.2-.2.3-.1M56.4 26l.8.2c.3 0 .1 0 0 0h-1l.2-.1M57.2 25.6l1 .2c.1 0 0 .1 0 .1l-1.3-.2.3-.1M62.1 26.6l-.3-.5L31 45.6l-1 .7-.2-.2-.4-.4-1 .5c-.7.5-1.4 1.5-1.2 2.1.6.4 1.8.2 2.5-.3l.8-.7-.3-.6 27.4-17.3c.8 0 1.6.1 2.4-.4a75 75 0 0 0 2-1.3l-.8-.6.8-.5"/><path fill="#FFF" d="M61.6 26l-.8.5a15 15 0 0 1-.2-1l-2 1.3c-.9.5-1 1.3-1.4 2L30 46a7 7 0 0 0-.5-.5l-1 .5c-.7.5-1.3 1.4-1.2 2 .6.4 1.8.2 2.5-.2l.9-.7-.3-.4c-.5.3-1.2.7-2 .8.9-.5 2.2-1.2 3-1.8l26.3-16.5c.8 0 1.6 0 2.4-.4l2-1.3-.9-.6.9-.5-.4-.5"/><path fill="#32276B" d="M60.3 27V26H60v1l.2-.2M59.5 27.4l.1-1-.1.1-.2 1.1.2-.2M58 28.4l.1-.7c0-.2 0-.1 0 0-.2.2-.3.6-.4.9l.2-.2M58.7 28l.2-1c0-.1-.2 0-.2 0l-.2 1.1.2-.1M60.5 27.3l.9.3-.1.1-1-.3.2-.1M59.7 27.8l1 .3c.1 0 0 0 0 0l-1.2-.2.2-.1M58.2 28.8l.8.1c.2 0 0 0 0 .1h-1l.2-.2M59 28.3l1 .2-.1.1-1.2-.2.2-.1M63.9 29.3l-.4-.4L33 48.3l-1.1.7-.2-.2-.3-.3-1 .5c-.8.4-1.4 1.4-1.3 2 .6.4 1.8.2 2.5-.3l1-.6-.4-.6L59.4 32c.8 0 1.7.2 2.5-.4l2-1.3-.9-.5.9-.6"/><path fill="#FFF" d="M63.4 28.7l-.9.6-.2-1-2 1.2c-.8.6-1 1.3-1.3 2L31.6 48.8l-.4-.5-1 .5c-.7.5-1.3 1.4-1.2 2 .6.4 1.7.3 2.4-.2l1-.7-.3-.4c-.6.4-1.3.7-2 .8l3-1.7L59.3 32c.8 0 1.6.1 2.5-.4l2-1.3c-.2 0-.6-.3-1-.6l1-.5-.4-.5"/><path fill="#32276B" d="M62 29.7v-.9H62v1l.2-.1M61.3 30.2v-1c-.2.3-.3 1-.3 1.1l.3-.1M59.7 31.2l.2-.8c0-.2 0 0-.1 0-.2.2-.3.6-.3 1l.2-.2M60.5 30.7l.1-1c0-.1 0 0-.1 0a6 6 0 0 0-.3 1.1l.3-.1M62.3 30l.8.4-1-.2.2-.2M61.5 30.5l1 .3h-.1l-1.1-.1.2-.2M60 31.5l.8.1c.2 0 0 .1 0 .1h-1.1l.2-.2M60.7 31l1 .3c.1 0 0 0 0 0l-1.3-.1.3-.2M65.7 32l-.4-.4L34.7 51l-1.1.7-.2-.2-.3-.3-1 .5c-.8.4-1.4 1.4-1.3 2 .6.4 1.8.2 2.5-.3l.9-.6-.3-.6 27.3-17.3c.8 0 1.7 0 2.5-.4a79 79 0 0 0 2-1.4l-.9-.5.9-.5"/><path fill="#FFF" d="M65.2 31.4l-.9.6-.2-1-2 1.2c-.8.6-1 1.3-1.3 2L33.4 51.6c0-.2-.3-.5-.4-.6l-1 .6c-.7.4-1.3 1.3-1.2 2 .6.3 1.7.2 2.4-.3l1-.7-.3-.4a37 37 0 0 0 1-1l26.2-16.5c.8 0 1.6.1 2.5-.4l2-1.3c-.2 0-.6-.3-1-.6l1-.5-.4-.5"/><path fill="#32276B" d="M63.9 32.4l-.1-.9h-.1v1l.1-.1M63 32.9l.2-1H63a5 5 0 0 0-.2 1.1l.3-.1M61.5 33.9l.2-.8c0-.2-.1 0-.1 0-.2.2-.3.7-.3 1l.2-.2M62.3 33.4l.1-1c0-.1-.1 0-.1 0a6 6 0 0 0-.3 1.2l.3-.2M64 32.7l1 .4h-.2l-1-.2.3-.2M63.3 33.2l1 .3-.1.1-1.1-.2.2-.2M61.7 34.2l.9.2c.2 0 0 0 0 0h-1.1l.2-.2M62.5 33.7l1 .3c.1 0 0 0 0 0l-1.3-.1.3-.2"/><path fill="#008C3E" d="M45.2 49.8v-1H45l-.2.1v-.4c0-.2 0-.2-.1-.1h-.1l-.3-.7c0-.1 0 0-.1 0l-.2.6c0 .1 0 .1-.2 0h-.1l.1.8-.2-.3c-.1-.1-.2 0-.2 0v.9l1 .6.8-.5M38 54.5l-.7-.2c-.1 0-.1-.1 0-.2l.3-.1-.6-.2c-.2 0-.2 0 0-.1l-.1-.1-.4-.4a37.6 37.6 0 0 0 .7-.2v-.2l.6.2-.1-.3s0-.1.1 0l1 .2.2 1-1 .6M39.7 60.4l-.4.7v.1h.3l-.5.6h.2v.1l-.1.6c0 .1 0 .2.1.1l.6-.4.1.2s0 .2.2 0l.4-1v.5h.2l.5-.7-.2-1-1.4.2M47.4 61.5l.5.7h.1l.1-.3.3.5h.2c0-.2 0-.2.1-.1l.5.3h.1v-.7c-.1 0-.1 0 0 0 .2 0 .2-.1 0-.2l-.4-.5h.4c.1.1.2 0 0 0l-.5-.7-1.3-.2-.1 1.2M50.3 54.6l1-.2v-.2c-.1 0-.2 0-.3-.2l.5-.1v-.2c-.1 0-.1 0 0 0l.5-.5c.1 0 0 0 0 0h-.6c-.1 0-.2-.1-.1-.2 0-.2 0-.2-.1-.1l-.6.3.1-.4c.1-.1 0-.1 0 0-.1 0-.6 0-.9.2l-.6 1.1 1 .5"/><path fill="#32276B" d="M52 53.1h-.7c0-.3 0-.3-.1-.2l-.6.3.1-.4c0-.1 0-.1 0 0l-.8.1c-.1-1.3-1.8-3.2-4.4-3.2h-.3v-.9H45l-.2.1v-.4c0-.2 0-.2-.1-.1h-.1l-.3-.7c0-.1 0 0-.1 0l-.2.6c0 .1 0 .1-.2 0h-.1l.1.8-.2-.3c-.1-.1-.1 0-.2 0v.7c-1.8 0-4.5 1.4-4.7 3.4l-.9-.3-.1.1v.3l-.5-.2v.2a29.7 29.7 0 0 1-.7.2l.4.4v.2l.7.2-.3.1c-.1 0-.1.1 0 .2l.6.2c-.3.4-.4 1-.4 1.8 0 2.3.9 3.9 2.2 4.2l-.4.6v.1h.3l-.5.6h.2v.1l-.1.6c0 .1 0 .2.1.1l.6-.4.1.2s0 .2.2 0l.4-1v.5h.2l.3-.5c.5.9 2 1.3 3.4 1.3 2 0 2.7-.4 3-1l.4.5h.1l.1-.3.3.5h.2c0-.2 0-.2.1-.1l.5.3h.1v-.7c-.1 0-.1 0 0 0 .2 0 .2-.1 0-.2l-.4-.5.4.1c.1 0 .2 0 0-.1l-.4-.6c1.1-.4 2.3-2.1 2.3-4.4a2 2 0 0 0-.7-1.7l.7-.1c.1 0 .1 0 0-.2L51 54l.5-.1v-.2c-.1 0-.1 0 0 0l.5-.5c.1 0 0 0 0 0m-14.4.3l1 .4a1 1 0 0 0-.6.4l-.5-.1.3-.2a54.4 54.4 0 0 0-.7-.3h.2l-.6-.5h.8l-.1-.2.5.2s.1 0 0-.1v-.3l.8.3c0 .3 0 .4.2.6l-1.2-.3c-.2 0-.3 0 0 .1zm3.2 8.2v-.4h-.3l-.4.9v-.3l-.7.5.2-.8h-.2l.5-.5h-.1-.3l.4-.6h.3l.6-.1-.8 1c0 .2 0 .3.1.1l1-1c-.2.2-.1.5 0 .8l-.3.4zm3.7-11.5l-.1-1.4a48.6 48.6 0 0 1-.1 1.2l-.7-.5V49l.2.2c.1.1.2 0 .2-.1l-.2-.6.2.1.3-.7.2.8.2-.2v.6l.3-.1v.8c-.3 0-.4.2-.5.4zM49 61h-.3c-.1 0-.2 0 0 .2l.4.4H49l.1.7-.6-.4v.2l-.3-.5H48l-.2.3-.3-.5a2 2 0 0 0 .1-.8l.9 1s.2 0 0-.1l-.7-1h.8l.4.5zm2-7.4l.2.1-.5.1c-.1 0 0 .1 0 .2l.2.2-.6.1-.7-.3 1.1-.5c.2 0 .2-.2 0 0l-1.2.3c.2-.2.3-.5.3-.8l.6-.2v.3c-.2.1-.1.2 0 0l.6-.2v.3h.7l-.7.4z"/><path fill="#FFF" d="M46.2 58.6c.1.3 1.2 1.4 1.2 2.1 0 1.3-1 1.6-2.9 1.6-2.3 0-3.3-1-3.3-1.6 0-.6.7-1.5 1.3-2.1.2-.3-.2-.6-.3-.2-.2.3-1 1.8-2 1.8-1.6 0-2.3-2.4-2.3-4.4 0-1 .3-1.7 1-1.7.4 0 1.3.5 2.5.9.4.1.6-.3 0-.4-1 0-2.4-.7-2.4-1.4 0-1.8 3.2-3.4 4.3-3.4 1 0 1 1.5 1 3.3 0 .4.3.3.3 0l-.1-2.1c0-.5.2-1 1-1 2 0 4.1 2 4.1 3.1 0 .7-1.1 1.4-2.5 1.6-.4 0-.2.5.1.3a6 6 0 0 1 2.2-.6c.7 0 1.4.5 1.4 1.6 0 2.6-1.4 4.4-2.3 4.4-.9 0-1.5-1-2-2-.1-.2-.4-.1-.3.2"/><path fill="#32276B" d="M45 53l-.1-1.5c0-.8.2-1.1.7-1.1.6 0 1.2.9 1.7.9.1 0 .3 0 .3-.2l.2.1v.4c0 .8 1.4.7 1.4 1.4 0 1-1.6 1.3-2.1 1.3-.3 0-.2 0 0 0 .8-.1 1.9-.7 1.9-1.3 0-.6-1.7-.5-1.4-1.7-.8.6-1.3-.7-2-.7-.3 0-.5.2-.5.9A42 42 0 0 0 45 53M41.7 54.3c-.3-.2-1.1-.3-1.4-.4-.8-.3-.9-.7-.8-1 .2-.5 1.3-.8 1.4-1.4v-.3-.2l.4.2c.7.2 1.2-1.1 1.9-1 1 .4.5 2.2.5 2.7 0 .2-.1.2-.2 0 0-.4.5-2.1-.4-2.4-.7-.2-1 1.5-2 .7.2 1-1.2 1.1-1.4 1.7 0 .3.2.7.7.9l1.4.4s.1.2 0 0M41.9 57.8l-.7 1.3c-.5.6-1 .7-1.5.4-.4-.3-.4-1.5-.8-1.8a.5.5 0 0 0-.3 0c-.1 0-.2-.1-.1-.2l.3-.2c.3-.7-.8-1.5-.3-2.1.5-.7 2 0 2.6.4.2.1.2.2 0 .1-.9-.5-2-1-2.4-.4-.4.6 1 1.5 0 2.2 1 0 .7 1.4 1.2 1.8.2.2.8.1 1.1-.3l.8-1.3c.1-.1.2 0 0 .1M45.7 58.9l.8 1c.5.5.5 1.1.2 1.4-.4.4-1.5 0-2 .3l-.1.3c0 .2-.2.1-.2 0l-.2-.3c-.4-.6-1.6.1-2-.4-.6-.7.2-1.9.7-2.2.1-.2.2-.1.1 0-.8.7-1 1.6-.8 2 .4.5 2-.4 2.3.8.3-1 1.5-.3 2-.7.3-.2.3-.6 0-1l-1-1.1c0-.2 0-.3.2-.1M47.5 55.4c.4 0 1-.1 1.3-.3.7-.3 1.2 0 1.3.4.1.5-.4 1.5-.2 2l.2.2c.1 0 0 .2 0 .2h-.4c-.7.3-.3 1.6-1 1.8-1 .3-1.8-1.1-1.9-1.6 0-.2 0-.2.1 0 .4.9 1.2 1.6 1.7 1.4.6-.2.1-1.7 1.3-1.7-.7-.6.2-1.6 0-2.2-.1-.4-.5-.5-1-.3l-1.4.3c-.2 0-.3-.1 0-.2"/><path fill="#32276B" d="M49 57.4l-2.3-.7a6 6 0 0 0 2.1-.4c.1 0 .1-.1 0-.1-.3 0-1.4.4-2.1.4l.1-.7a2.4 2.4 0 0 0-.9-1.7c.6-.5 1.6-.8 1.8-.9.2 0 .3-.2 0-.1a3.9 3.9 0 0 0-1.9.9l1.4-1.9c.1-.2 0-.3-.1-.2-.2.1-1.1 1.5-1.4 2 .2-.4.3-1.7.3-2 0-.2-.2-.2-.2 0 0 .1 0 1.2-.2 2-.4-.2-.9-.3-1.4-.3a2 2 0 0 0-1 .3c-.4-.7-.4-2-.4-2.2 0-.2 0-.3-.1-.1-.1.2-.1 1.6.3 2.2l-1.4-2c-.1-.1-.3 0-.2.1a24 24 0 0 0 1.5 2 6 6 0 0 0-2-1s-.2.1 0 .2c.2 0 1.5.6 2 1a4 4 0 0 0-.4.4c-.4.4-.5 1-.5 1.6v.4c-.8 0-2-.5-2.2-.7-.1 0-.2 0-.1.1.2.2 1.4.9 2.2.7l-2.4.5c-.3 0-.2.1 0 .2l2.4-.5a6 6 0 0 0-1.8 1.3c0 .1 0 .2.2.1.2-.2 1.2-1.1 1.8-1.4.1.5.5.9 1 1.2l1.1.3a5 5 0 0 1-1 2c-.2.1 0 .3 0 .1.3-.1 1.1-1.2 1-2 0 .4.2 2.2.1 2.4 0 .3.2.3.2.1v-2.4a6 6 0 0 0 1 1.9s.2 0 .1-.1c-.3-.4-.9-1.3-1-2 .5 0 1.4-.4 1.7-1l.3-.5a5 5 0 0 1 1.4 1.6c.1.2.3.2.2 0 0-.3-.8-1.4-1.6-1.6.4 0 2.1.6 2.3.7.3.1.3-.1.2-.2"/><path fill="#FFEA00" d="M44.3 55.6c.2 0 .4.2.4.3 0 .2-.2.4-.3.4-.2 0-.4-.2-.4-.3 0-.2.2-.4.3-.4M43.4 55.4c.2 0 .3.2.3.3 0 .2-.2.4-.3.4-.2 0-.3-.2-.3-.3 0-.2.2-.4.3-.4M43.6 56.3c.2 0 .3.2.3.3l-.2.4c-.2 0-.4-.1-.4-.3 0-.2.2-.4.3-.4M44.6 56.7c.2 0 .3.2.3.3 0 .2 0 .3-.2.3s-.4-.1-.4-.3c0-.2.2-.3.3-.3M45.3 56c.2 0 .3.2.3.4s-.1.3-.3.3c-.1 0-.3-.1-.3-.3 0-.2.1-.3.3-.3M45 55c.3 0 .4.2.4.3 0 .2-.1.4-.3.4l-.3-.3c0-.2.1-.4.3-.4M46 55c.3 0 .4.2.4.3 0 .2-.1.3-.3.3s-.3-.1-.3-.3c0-.2.1-.3.3-.3M45.3 54.1c.2 0 .3.2.3.3 0 .2 0 .3-.2.3s-.3-.1-.3-.3c0-.1 0-.3.2-.3M46.1 56.2c.3 0 .4.1.4.3l-.3.3c-.2 0-.3-.2-.3-.3 0-.2.1-.3.3-.3M45.5 57.1c.2 0 .4.2.4.3 0 .2-.2.4-.4.4-.1 0-.3 0-.3-.2s.1-.5.3-.5M44.1 57.5c.2 0 .5.2.5.3 0 .2-.2.3-.4.3-.1 0-.3-.1-.3-.3 0-.2 0-.3.2-.3M43 57.2c.3 0 .5.1.5.2 0 .2-.2.4-.4.4l-.3-.3c0-.2.1-.3.3-.3M42.5 56.2c.2 0 .3.1.3.3 0 .1-.1.3-.3.3l-.3-.3c0-.2.2-.3.3-.3M42.6 55c.2 0 .3.1.3.2 0 .2-.2.4-.3.4-.2 0-.3-.2-.3-.3 0-.2.2-.3.3-.3M44.3 53.9c.2 0 .3.1.3.3 0 .1 0 .3-.2.3s-.3-.2-.3-.3c0-.2.1-.3.2-.3M43.2 54.2c.2 0 .3.1.3.3 0 .1 0 .3-.2.3s-.3-.2-.3-.3c0-.2.1-.3.2-.3M44 54.7c.3 0 .4.2.4.3 0 .2-.1.3-.3.3-.1 0-.3-.1-.3-.3l.3-.3"/><path fill="#32276B" d="M44.3 14c1.2 0 1.7.8 1.2 2 .3 0 .4-.2.5-.7.9.3 1 1.3.3 1.9.4-.2.8-.2 1 0-.3.2-.4.4-.4.6.3-.2.5-.4 1-.4.6 0 1.1.3 1.1 1.2 0 1.3-.8 1.5-1.8 1.2l.3.4c-.8.3-1.9 0-2.6-.4.4 1.3 2.4 1.9 4 .6.6 1.6 3 1.8 4.1.5-1 .5-2.1.2-2.7-.3.2 0 .6-.2.7-.4-.8 0-1.2-.3-1.2-1 0-.6.7-1.3 1.5-1.3.5 0 .8.4 1 .8v-1c1 0 1.2.6 1.4 1 .3-1.3 1.2-2.2 3-1.9l-.7 1c.2-.1.6-.4 1.2-.4.8 0 1.3.6 1.3 1.2s-.4 1-.7 1.2c-.4-.7-1-.8-1.3-.8-1 0-1.5.5-1.7.8.4.7 0 1.2-.7 1.1l-1.2 1.9c.2.5.2 1-.2 1.6l-.1.8.2.4c0 1-3.8 1.4-8.5 1.4-2.5 0-8.6-.3-8.6-1.4 0-.2.1-.3.3-.4l-.1-.8c-.3-.5-.4-1-.1-1.5-.3-.3-1.1-1.8-1.2-2-1 0-1-.6-.8-1-.3-.5-.9-1-1.6-1-.6 0-1 .2-1.3.7-.3-.2-.6-.4-.6-1 0-.7.6-1.1 1.1-1.1.6 0 1 .2 1.3.5l-.7-1.2c1.8-.3 2.7.7 3 2 .1-.4.4-1.1 1.4-1v.9c.2-.4.5-.8 1-.8.7 0 1.5.8 1.5 1.4 0 .7-.5 1-1.4.9.1.2.4.3.7.4-.5.5-1.6.7-2.7.3 1.3 1.5 3.7 1 4.2-.5 1.4 1.3 3.7.8 4-.6-.7.5-1.7.6-2.6.4.2 0 .3-.3.4-.4-1.2.3-1.8 0-1.8-1.2 0-.6.4-1.2 1-1.2.4 0 .7.2 1 .4 0-.2 0-.4-.4-.6.3-.2.6-.2 1 0-.6-.6-.5-1.6.4-2 .1.5.2.8.4.8-.5-1.3 0-2 1.2-2"/><path fill="#FFEA00" d="M32.7 18.5c-.3-.7-.8-.8-1.2-.8a1 1 0 0 0-.9 1c0 .2 0 .4.2.5.2-.3.7-.9 2-.7M57.9 19.2l.2-.6c0-.5-.4-.9-1-.9s-.9.2-1.2.7c1.3 0 1.7.4 2 .8M44.3 26.8c3.5 0 8-.4 8-1.2 0-.5-3.7-1.3-8-1.3-4.4 0-8 .8-8 1.3s3.8 1.1 8 1.2"/><path fill="#FFEA00" d="M44.3 26.8c3.5 0 8-.4 8-1.2 0-.5-3.7-1.3-8-1.3-4.4 0-8 .8-8 1.3s3.8 1.1 8 1.2"/><path fill="#FFEA00" d="M34.7 20.6l1.3 2.1 1.4.3c.3 0 .4.5.2.6l-1.4 1v.5c2.2-.8 4.9-1 8.1-1 4 0 6.2.4 8 1v-.6l-1.3-.9c-.2-.2 0-.6.1-.6l1.6-.4a53.3 53.3 0 0 0 1.8-2.7c.4-.9 1.3-1.3 2.6-1-.4-.4-1.1-.3-1.4-.2l-.2-.1c.2-.7.3-1 .7-1.5-1.7-.1-2.3 1.3-2.3 2 0 .2-.3.3-.3.2 0-.6-.4-1.2-1-1.3l-.1 1h-.3c-.3-.5-.5-.8-.8-.8-.5 0-.8.3-.6.6 0 0 0 .1-.2 0-.2 0-.4.1-.4.5 0 .5.4.7 1 .7.2 0 .3 0 .2.2l-.5.4c.1.1.5.3 1.2.3.6 0 1.1-.2 1.3-.4.1-.1.3 0 .2.2-.4 1.2-3.3 2.4-4.9.2-1.3 1-3.4.8-4.1-1-.1-.3.1-.5.3-.3l1.3.4h.8l-.2-.4c0-.1 0-.2.2 0l.6.1c.7 0 1-.5 1-.7 0-.2-.1-.3-.3-.3-.1 0-.1-.1 0-.2l.2-.4c0-.2-.2-.4-.7-.4l-.9.3h-.2c0-.2 0-.4.2-.7-.3-.1-1.1.2-1.9.9 0 .1-.3-.1-.2-.2 1-.6 1.6-1.2 1.6-1.7 0-.3-.1-.5-.3-.6-.1.4-.5.6-.7.6 0 0-.2 0-.1-.2l.1-.9c0-.4-.3-.8-.6-.8-.2 0-.3 0-.4.2 0 .1-.1.1-.2 0 0-.2-.2-.2-.4-.2-.3 0-.6.4-.6.8l.2 1h-.2c-.4 0-.6-.2-.7-.5l-.2.6c0 .6.5 1 1.5 1.7.1 0 0 .3-.1.2-.8-.7-1.6-1-1.9-1 .2.5.2.6.1.8h-.2c-.2-.1-.5-.3-.8-.3-.4 0-.7.3-.7.6 0 0 0 .2.3.3v.1c-.3 0-.4.2-.4.4 0 .3.4.6.8.6l.8-.2c.1-.1.2 0 .2.1l-.2.5c.6 0 1.4-.1 2-.5.3-.1.4.1.4.2-.3 1.4-2.5 2.4-4.2 1.2-1.7 2-4 1.1-4.8-.3-.1-.1 0-.4.1-.2.3.2.8.4 1.4.4.5 0 .9 0 1.1-.3-.2 0-.4-.3-.5-.4l.1-.3c1 .2 1.2-.2 1.2-.5 0-.4-.2-.6-.5-.5-.2 0-.3 0-.2-.1.2-.3 0-.6-.5-.6-.3 0-.5.3-.8.6h-.3c-.1-.2-.2-.5 0-.8-.7 0-1 .6-1.2 1.3l-.2-.1c0-.7-.7-2.2-2.3-2.1.4.4.5.8.7 1.4 0 .2-.2.2-.3.2a2 2 0 0 0-1.2.1c.8-.1 1.8.1 2.4 1 .2.2.6.5.6.8"/><path fill="#32276B" d="M44 21.4l-.8.7-.2.3s0 .2.2.3l.8.7h.6l.8-.7.2-.2c0-.2 0-.3-.2-.3l-.8-.7-.2-.2-.4.1M39 23.3v-.6l.3-.4 1.5-.2.4.3.1.7a1 1 0 0 0-.3.3l-1.6.2-.3-.3M34.3 19.5c0-.6-.4-1.5-.8-1.7h-.1c.3.3.6 1.2.7 1.6 0 0 .2.2.2 0M44 18.8c0-.3.1-.5.4-.5.2 0 .4.2.4.5 0 .4-.2.5-.5.5s-.4-.2-.4-.5M41.2 18.6h2.2a61 61 0 0 0-2.2 0M44.5 17.8h-.3a124.4 124.4 0 0 0 .2-2.3l.1 2.3M45.3 18.6h2.2c.1 0 .1.1 0 .1l-2.1.1c-.2 0-.2-.2 0-.2M37.1 19.4l-2 .7-.2-.1 2.2-.7M54.4 19.5c0-.6.5-1.4.7-1.7 0 0 .1 0 0 0l-.6 1.6s-.2.2-.1 0M51.6 19.4l2 .7v-.2l-2-.6s-.1 0 0 0M49.5 23.3v-.6a.6.6 0 0 1-.2-.4l-1.5-.2-.4.2-.1.7.3.4 1.5.2c.1-.2.2-.2.4-.3M44.3 24.7c4.7 0 7.2.6 7.2 1 0 .2-.5.3-.6.3 0 0-.1-.1 0-.2l.2-.1c0-.3-2.3-.8-6.8-.8-3.8 0-6.6.5-6.6.8h.1c.1.1.1.2 0 .2-.2 0-.5 0-.5-.2 0-.6 3.8-1 7-1"/><path fill="#FFEA00" d="M44.2 21.6h.2l.8.7v.2l-.9.6h-.1a26.7 26.7 0 0 0-.9-.8l1-.7M36.1 24.3h.2l1.1-.9v-.2L36 23H36c-.2.4-.2 1 .1 1.3M52.6 23h-.1l-1.3.2v.2l1.1.8h.1c.3-.2.4-1 .2-1.2M39.3 23.2l.2.1A38.3 38.3 0 0 1 41 23v-.5l-.3-.1a36 36 0 0 1-1.5.3l.1.5M49.2 23.2l-.2.1-1.3-.2-.2-.1v-.5l.3-.1a35 35 0 0 0 1.5.3l-.1.5"/><path fill="#32276B" d="M93 19.5c-.3-2.8-.6-3.5-2.4-3.5h-.8v8.4c0 .8.3.9.7.9H92v.6H86v-.6h1.4c.4 0 .8-.1.8-.9V16h-.9c-1.8 0-2.1.7-2.4 3.5h-.5v-4.1h9v4.1H93M99 25.9v-.6h.5c.4 0 .8-.1.8-.9v-4c0-.3-.1-1.2-1.1-1.2-1.4 0-2.3 1.4-2.3 3v2.2c0 .8.3 1 .8 1h.5v.5H94v-.6h.7c.5 0 .8-.1.8-.9v-7.6c0-.8-.4-.9-.8-.9H94v-.5H97v4.5c.4-.8 1.3-1.5 2.5-1.5 1.4 0 2.2 1 2.3 1.8v4.2c0 .8.3 1 .7 1h.7v.5H99M106.9 26c-2.6 0-3.5-1.9-3.5-3.4 0-2 1.2-4.2 3.4-4.2 1.8 0 2.9 1.7 2.9 3.8l-.2.2h-4.6c0 2 .7 3 2.2 3 1.6 0 2.1-1.3 2.1-2.3h.6c0 1.4-.8 2.9-3 2.9m0-7c-1 0-1.8 1.1-2 2.8h3.4c.2-1.1-.3-2.8-1.4-2.8zM93.6 31c-.5 0-.8.1-.8.9v5.5c0 1.4-.7 3.7-3.7 3.7-2.5 0-3.6-1.6-3.8-2.8v-6.4c0-.8-.3-1-.7-1h-1v-.5h5.3v.6h-1.3c-.4 0-.8.1-.8.9v5.9c0 2 1.4 2.6 2.5 2.6 1.5 0 2.7-.9 2.7-3V32c0-.8-.3-1-.8-1H90v-.5h4.6v.6h-1M99 40.9v-.5h.5c.4 0 .7-.2.7-1v-4c0-.3 0-1.2-1-1.2-1.4 0-2.2 1.5-2.2 3v2.3c0 .7.4.9.8.9h.5v.5h-4.1v-.5h.7c.4 0 .7-.2.7-1V35c0-.8-.3-.9-.8-.9h-.7v-.5H97L97 35c.4-.8 1.1-1.5 2.4-1.5 1.3 0 2.1 1 2.2 1.8v4.2c0 .7.4.9.8.9h.6v.5h-4M103.4 40.9v-.5h.6c.5 0 .8-.2.8-1V35c0-.8-.3-.9-.8-.9h-.7v-.5h2.9v5.9c0 .7.3.9.8.9h.7v.5h-4.3m2-8.6c-.5 0-1-.5-1-1 0-.6.5-1 1-1 .4 0 .8.4.8 1 0 .5-.4 1-.9 1zM115 34.1c-.5 0-.9.3-1 1l-2.4 5.8h-.7l-2.1-5.9c-.3-.7-.7-.9-1.2-.9h-.5v-.5h4.3v.5h-.6c-.5 0-.9.2-.6 1l1.5 4 1.5-3.8c.2-.6.2-1.2-.5-1.2h-.5v-.5h3v.5h-.2M118.8 41.1c-2.6 0-3.5-2-3.5-3.5 0-2 1.2-4.2 3.3-4.2 2 0 3 1.7 3 3.7l-.2.3h-4.7c0 1.9.8 3.1 2.3 3.1 1.5 0 2.1-1.3 2-2.2h.7c0 1.3-.8 2.8-3 2.8m0-7c-1 0-1.8 1-2 2.6h3.4c.1-1-.3-2.7-1.4-2.7zM127.4 36a.8.8 0 0 1-.8-.8c0-.6.4-1 .8-1.2-1.2-.2-2.3 1.2-2.3 3.2v2.3c0 .7.3.9.8.9h.8v.5h-4.4v-.5h.6c.5 0 .8-.2.8-1V35c0-.8-.3-.9-.8-.9h-.6v-.5h2.7v1.3c.4-.8 1.2-1.5 2.2-1.5.7 0 1.2.6 1.2 1.3 0 .7-.4 1.3-1 1.3M132.2 41.1c-.8 0-1.7-.4-2-1l-.4.9h-.5v-3.2h.5c.1 1.2 1 2.7 2.4 2.7.6 0 1.3-.4 1.3-1.1 0-1.7-4.2-1.3-4.2-3.7 0-1.3.9-2.3 2.3-2.3.7 0 1.4.3 1.9.8l.4-.7h.4v2.8h-.5c-.3-1.5-1-2.3-2.1-2.3-.9 0-1.3.6-1.3 1.1 0 1.8 4.3 1.3 4.3 3.7 0 1.4-1 2.3-2.5 2.3M135.6 40.9v-.5h.6c.4 0 .7-.2.7-1V35c0-.8-.3-.9-.7-.9h-.7v-.5h2.8v5.9c0 .7.4.9.8.9h.7v.5h-4.2m1.9-8.6c-.5 0-.9-.5-.9-1 0-.6.4-1 .9-1s.9.4.9 1c0 .5-.4 1-1 1zM143.1 41c-.6 0-1.6-.5-1.8-1.4v-5.4h-1v-.5c1-.2 1.6-.8 1.7-3.3h.7v3.2h2.2v.6h-2.2V39c0 .7.3 1 .9 1 .6 0 1-.4 1-1v-2.2h.6v2.4c0 .9-.7 1.8-2 1.8M153.2 34.1c-.5 0-.9.3-1.1.9l-2.8 6.6c-.8 2-1.3 3-2.6 3-.7 0-1.3-.6-1.3-1.3 0-.6.3-1.2 1-1.2.3 0 .7.4.7.9 0 .3-.2.7-.5 1 .9.2 1.9-1.3 2.4-3.4l-2-5.6c-.3-.7-.7-.9-1.2-.9h-.3v-.5h4v.5h-.5c-.5 0-.8.2-.6 1l1.4 3.9 1.5-3.7c.2-.6.2-1.2-.5-1.2h-.6v-.5h3.2v.5h-.2M89 56.2c-2.8 0-4.4-2.8-4.4-5.3 0-3 1.9-5.6 4.5-5.6 3.4 0 4.6 3.4 4.6 5.4 0 3.5-2 5.5-4.6 5.5m.1-10.2c-2.3 0-3 2.3-3 4.9 0 3.7 1.7 4.6 3 4.6 1.8 0 3-2 3-4.5 0-2-.6-5-3-5zM98.8 47.6c-.3 0-.7-.2-.7-.7 0-.4.3-.7.7-.9l-.4-.2c-.8 0-1.2.6-1.2 1.5 0 .6.1 1.4.3 2h1.7v.6h-1.7v4.6c0 .8.4 1 .8 1h.9v.4h-4.5v-.5h.6c.5 0 .8-.1.8-.9V50h-1.4v-.6h1.4l-.2-1.5c0-1.4.9-2.5 2.3-2.5 1 0 1.5.7 1.5 1.2 0 .8-.5 1-.9 1M89.6 71.3c-1.4 0-2.5-.8-3-1.5L86 71h-.5v-4.6h.6c.2 2 1.2 4.2 3.4 4.2 1.2 0 2-.7 2-1.8 0-3.5-6.1-1.3-6.1-5.6a3 3 0 0 1 3-2.9c1.4 0 2.2.5 2.8 1.2l.5-1.2h.4v4.5h-.5c-.2-2.2-1.1-3.8-3-3.8-1.7 0-2.1 1.2-2.1 1.8 0 3.2 6.3 1.3 6.3 5.3 0 2.1-1.7 3.2-3.2 3.2M98.2 71v-.5h.5c.4 0 .8-.1.8-.9v-4c0-.3-.1-1.2-1.1-1.2-1.4 0-2.2 1.5-2.2 3v2.2c0 .8.4.9.8.9h.5v.5h-4.1v-.5h.7c.4 0 .7-.1.7-.9v-8.2c0-.7-.3-.8-.7-.8h-.7V60h2.9v5.1c.4-.8 1-1.5 2.3-1.5 1.4 0 2.2 1 2.3 1.8v4.2c0 .8.3.9.7.9h.7v.5h-4.1M106.2 71.3c-2.6 0-3.5-2-3.5-3.5 0-2 1.2-4.3 3.3-4.3 2 0 3 1.7 3 3.8l-.2.2H104c0 2 .8 3.2 2.3 3.2 1.5 0 2.1-1.3 2-2.3h.7c0 1.4-.8 2.9-3 2.9m0-7.1c-1 0-1.8 1-2 2.7h3.4c.1-1.1-.3-2.7-1.4-2.7zM114.1 62.1a.7.7 0 0 1-.7-.7c0-.4.3-.7.7-.9l-.8-.2c-1 0-1.4.7-1.4 1.5l.3 2h1.6v.6h-1.5v5.2c0 .8.3.9.7.9h.7v.5h-4.1v-.5h.5c.4 0 .8-.1.8-.9v-5.2h-1.3v-.7h1.2l-.2-1.5c0-1.3 1.1-2.5 2.6-2.5 1 0 1.8.7 1.8 1.3 0 .7-.5 1.1-.9 1.1"/><path fill="#32276B" d="M120.6 62.5a.9.9 0 0 1-.9-.8c0-.4.2-.8.6-1-.3-.4-.8-.5-1.3-.5-1.6 0-2.4 1.4-2 3.5h1.6v.7H117v5.2c0 .8.3.9.7.9h.8v.5h-4.2v-.5h.5c.4 0 .8-.1.8-.9v-5.2h-1.3v-.7h1.2c-.4-2 .7-4 3.4-4 1.4 0 2.6.8 2.6 1.6s-.4 1.2-1 1.2m-1.5 8.5v-.5h.7c.4 0 .7-.1.7-.9v-4.5c0-.7-.3-.8-.7-.8h-.7v-.6h2.8v6c0 .7.4.8.8.8h.6v.5H119zM127.2 71.3c-2.6 0-3.5-2-3.5-3.5 0-2 1.2-4.3 3.4-4.3 1.8 0 2.9 1.7 2.9 3.8l-.2.2h-4.6c0 2 .7 3.2 2.2 3.2 1.6 0 2.1-1.3 2.1-2.3h.6c0 1.4-.8 2.9-3 2.9m0-7.1c-1 0-1.7 1-1.9 2.7h3.3c.2-1.1-.3-2.7-1.4-2.7zM130.5 71v-.5h.7c.4 0 .8-.1.8-.9v-8.2c0-.7-.4-.8-.8-.8h-.7V60h2.9v9.6c0 .8.3.9.7.9h.7v.5h-4.3M141.9 71c-.5 0-1-.5-1-1-.3.6-1 1.2-2 1.2-2 0-3.2-1.7-3.2-3.8 0-1.4 1-3.9 3.4-3.9.6 0 1.3.4 1.7 1v-3c0-.8-.3-1-.8-1h-1.5V60h3.7v9.6c0 .8.3.9.8.9h.7v.5h-1.8m-2.8-6.8c-1.1 0-2 1.4-2 3 0 2.3.9 3.3 1.9 3.3 1.3 0 2-1.1 2-3 0-1.5-.5-3.3-2-3.3zM145.6 71.2a1 1 0 0 1-1-1c0-.6.5-1 1-1 .6 0 1 .4 1 1 0 .5-.4 1-1 1M55.7 46.5c0-2.5-1-13-1-16.7 0-.3 0-.3-.2-.3l-.7.1v-.4l-.1-.1H53v-.8l-2 .2c-1.9 0-3-.6-4.4-.6-.6 0-1.3.1-2 .4h-.5a4 4 0 0 0-1.6-.4c-1.5 0-3.4.7-5.1.7-1 0-1.7-.3-2.1-.5v.7h-.6l-.1.1v.4a8 8 0 0 1-.7 0c-.1 0-.2 0-.2.2l-1.2 17.3c0 .4 0 .6.5.4 1-.3 5.7-1.7 9.4-1.3-.3 1.2 4 1.2 3.8 0 3.4-.4 8.6 1.1 9 1.2.4 0 .5-.1.4-.6"/><path fill="#FFEA00" d="M43.8 45.5a8 8 0 0 0-3.2-.4c-3.2 0-5.4 1-7 .7l-.2-.1 1.2-16h-.4l-1.3 16.9c0 .2 0 .2.2.2 0 0 3.9-1.3 7.5-1.3l2.2.2c-.1 1 3.4.9 3.2.2v-.2l2-.2c2.8 0 7 1 7.1 1 .2 0 .2 0 .2-.2l-1-16.3c0-.1.1-.2 0-.2H54c0 3 .9 15.8.9 15.9h-.2l-1 .1c-1.4 0-3.8-.7-6-.7-1 0-2.2.3-2.6.4-.4.2-.7.2-1.2 0"/><path fill="#FFF" d="M44.2 28.9l-.1-.2c-.2-.2-.7-.5-1.4-.5-1.8 0-3.5.8-5.3.8l-1.6-.2c0 .9-1 14.2-1 15.8 1.4.3 3-.8 6.1-.8 2 0 3.2.6 3.4.7.2.1.2.1.4 0 .6-.3 1.9-.6 3.4-.6 2.1 0 4.1 1 5.3.7.2-5.2-.8-11.6-.8-15.8l-1.4.1c-1.9 0-3-.7-4.6-.7-1 0-1.6.4-1.8.5l-.1.2c0 3.3 0 12-.2 15.1 0 .2-.3.2-.3 0V29"/><path fill="#FFF" d="M53.5 29.5v-.1H53c0 5 .9 12 .7 15.6-1.4.3-3.3-.6-5.8-.6a8 8 0 0 0-3.3.5h-.4a10 10 0 0 0-3.4-.5c-3.6 0-4.6.7-6.5.6l1-16H35l-.1.2-1.2 16.2c2 .3 3.7-.6 6.8-.6 1.6 0 2.7.1 3.5.5h.9c.7-.4 1.6-.5 2.5-.5 3 0 5.3 1 6.9.8v-.2l-.9-16"/><path fill="#DB0D15" d="M36.7 38.8l-.4-.2c-.1 0-.3 0-.3.2h-.2l.1-4.1c0-.4 0-.4-.3-.3 0 0-.1-.2 0-.2l.8-.3v.5l.5-.5h.2c.4.2.9 1 .8 2.5 0 .5-.7 2.4-1.2 2.4m.1-4.4l-.3.4-.2 3.4.4.3h.1c.4-.3.6-1 .6-1.5 0-1.6-.3-2.6-.6-2.6z"/><path fill="#32276B" d="M38.7 38.5a80.4 80.4 0 0 0-.3-2.3c0-.2-.2-.2-.4-.2v-.2l.9-.3v.1c0 .4 0 2.2-.2 3m0-3.6c0 .2-.2.1-.2 0l-.1-.3-.2-.2v-.1l.6-.2-.1.8zM39.8 38.5a1 1 0 0 1-.7-.3s-.1-.1 0-.1l.2-.4c.2.3.4.6.6.6.2 0 .3-.3.3-.6s-1-.3-1-1.2c0-.3 0-.7.6-1 .1-.1.1-.1.2 0l.5.3-.1.3h-.2l-.4-.3c-.2 0-.2.2-.2.4 0 .5 1 .5 1 1.2 0 .4-.3 1.1-.8 1.1M41.6 38.5c-.6 0-.9-.7-.9-1.4 0-.6.5-1.2.8-1.5h.2l.4.4.2.1-.3.3h-.2l-.3-.4c-.2.2-.3.5-.3.8 0 .9.3 1.3.6 1.3.2 0 .3-.2.4-.4 0 0 .1 0 0 .1-.1.4-.2.7-.6.7M43.1 38.5c-.5 0-.8-.7-.8-1.4 0-.6.4-1.2.7-1.5h.3s.6.4.6.8l-1 1c0 .5.2.7.5.7s.4-.1.6-.3c-.2.5-.4.7-.9.7m0-2.6H43c-.2.3-.2.6-.2.9v.4c.2-.2.6-.5.6-.8L43 36z"/><path fill="#DB0D15" d="M46 38.7l-.3-.1h-.3a1068 1068 0 0 0-.2-4c0-.2-.1-.3-.3-.3-.1 0-.2 0 0 0l.7-.4.1.1v.3l.5-.4c0-.1.1-.1.2 0 .5.2.9.9.9 2.5 0 .7-.7 2.3-1.2 2.3m0-4.4c-.2 0-.3.2-.4.4v3.5c.3 0 .3.2.4.2h.1c.4-.4.5-1.1.5-1.7 0-1.8-.4-2.4-.6-2.4z"/><path fill="#32276B" d="M48.3 38.5c-.5 0-.8-.7-.8-1.4 0-.8.6-1.6 1-1.6.5 0 .8.8.8 1.5 0 .6-.6 1.5-1 1.5m0-2.6c-.3 0-.4.3-.4.6 0 1 .4 1.6.6 1.6.3 0 .4-.3.4-.6 0-.9-.4-1.6-.7-1.6zM50.3 38.5c-.5 0-.8-.7-.8-1.4 0-.6.4-1.2.8-1.5.1-.1.1-.1.2 0l.4.4s.2 0 .1.2l-.2.2h-.2c-.2 0-.3-.3-.4-.4-.2 0-.2.3-.2.6 0 1 .3 1.5.6 1.5.2 0 .3-.2.5-.3-.2.4-.3.7-.8.7M52 38.5c-.5 0-.8-.6-.8-1.3 0-.6.3-1.3.8-1.6h.2c.2 0 .7.6.7 1l-1.2.7c0 .5.4.8.6.8.3 0 .5-.2.6-.4v.1c-.2.4-.4.7-.8.7M52 36h-.1c-.2.1-.3.5-.3.8v.4c.3-.1.7-.4.7-.6 0-.3-.1-.5-.3-.6z"/></svg>